                                        <svg width="18" height="18" viewBox="0 0 18 18" fill="none" xmlns="http://www.w3.org/2000/svg">
                                            <g clip-path="url(#clip0_136314_9719)">
                                                <path fill-rule="evenodd" clip-rule="evenodd" d="M8.21096 0.0344742C9.83141 -0.107991 11.4898 0.192435 12.9502 0.91093C14.6457 1.73624 16.0662 3.11079 16.9494 4.7766C17.7137 6.20577 18.0726 7.84555 17.9878 9.46336C17.9151 10.9532 17.4622 12.4223 16.6809 13.6934C15.9431 14.9004 14.9169 15.9291 13.7118 16.67C12.4864 17.4261 11.0768 17.8789 9.64021 17.977C8.04955 18.0913 6.42835 17.7784 5.00075 17.065C3.45973 16.3032 2.14872 15.0871 1.2687 13.6105C0.491872 12.3148 0.0535152 10.8191 0.00582845 9.30947C-0.0528398 7.69586 0.332415 6.06857 1.11571 4.65625C2.04147 2.97119 3.52201 1.59874 5.27289 0.805021C6.19894 0.383342 7.1975 0.121729 8.21096 0.0344742ZM4.72532 1.85749C3.33397 2.68941 2.19476 3.9364 1.49465 5.39896C0.823874 6.78721 0.559867 8.36411 0.725642 9.89588C0.869906 11.2679 1.36633 12.6006 2.15324 13.7334C2.27012 13.4726 2.37452 13.2057 2.46689 12.935C2.909 11.6518 3.0191 10.2952 3.12831 8.94967C3.14499 8.74409 3.16166 8.53878 3.17948 8.33402C3.24763 7.5889 3.4313 6.82693 3.88621 6.21795C4.40294 5.5139 5.19135 5.06995 5.9939 4.76667L6.01751 4.7582C6.44054 4.60641 6.86937 4.45253 7.31951 4.41073C7.85023 4.35748 8.38697 4.4151 8.9058 4.53124C8.9178 4.53317 8.9298 4.53552 8.94182 4.53788L8.94184 4.53789C8.97384 4.54417 9.00597 4.55048 9.03833 4.54884C9.82208 4.72019 10.5947 4.97006 11.3168 5.31743L11.317 5.31735C10.5949 4.96999 9.82227 4.71996 9.03852 4.54861C9.55405 4.409 10.1228 4.3562 10.6269 4.56666C10.9567 4.6992 11.2202 4.9742 11.3451 5.30637L11.3449 5.30645C11.3503 5.31788 11.3613 5.34044 11.3669 5.35173L11.4102 5.36886C12.0506 5.62226 12.6921 5.87608 13.3565 6.05969C13.7629 6.17703 14.1629 6.32371 14.5357 6.52515C14.9855 6.76841 15.4216 7.11502 15.5996 7.61131C15.7704 8.07993 15.6433 8.5997 15.4064 9.02138C15.1452 9.50404 14.7526 9.887 14.3628 10.2672L14.3627 10.2673C14.274 10.3539 14.1854 10.4403 14.0985 10.5277C13.6158 10.9829 13.1457 11.452 12.7081 11.9507C11.9865 12.7717 11.3282 13.6651 10.8886 14.6711C10.5448 15.4582 10.3524 16.3339 10.4775 17.1927C12.4421 16.847 14.2604 15.758 15.5012 14.1971C16.3859 13.0954 16.9816 11.7633 17.2104 10.3687C17.4681 8.81362 17.2788 7.18512 16.6577 5.73519C15.9478 4.06382 14.6727 2.64143 13.0907 1.75068C11.8422 1.04181 10.4064 0.669776 8.97124 0.678051C7.48378 0.679404 5.99947 1.0901 4.72532 1.85749ZM7.49671 5.37204C7.05234 5.46034 6.65355 5.74753 6.42745 6.13987C6.19007 6.54079 6.14539 7.04657 6.29958 7.48495C6.41225 7.80734 6.63053 8.09076 6.91334 8.28212C7.26836 8.52779 7.72522 8.61624 8.14778 8.52779C8.58313 8.44023 8.9753 8.16117 9.20185 7.7795C9.41186 7.43365 9.48075 7.0073 9.39546 6.61225C9.3058 6.17974 9.02615 5.79161 8.64646 5.56685C8.30513 5.3606 7.88633 5.2929 7.49671 5.37204ZM13.4457 8.23278C13.2998 8.29024 13.2075 8.45302 13.2333 8.60797C13.2543 8.8058 13.4679 8.95022 13.6596 8.89937C13.8591 8.86026 13.9857 8.62753 13.9107 8.43873C13.85 8.25354 13.6233 8.1553 13.4457 8.23278ZM14.4372 9.76951C13.3283 10.3308 12.1011 10.704 10.8498 10.6952C10.4017 10.7019 9.94544 10.6527 9.52619 10.4859C9.43723 10.4515 9.3528 10.4076 9.26841 10.3637C9.20666 10.3315 9.14495 10.2994 9.08151 10.2711C9.57778 10.8463 10.3952 11.0061 11.122 10.9676C12.0297 10.8955 12.9116 10.6144 13.7378 10.239C14.2607 9.98358 14.7877 9.70422 15.2053 9.29247C15.1234 9.34374 15.0431 9.39763 14.9628 9.45152C14.7926 9.56573 14.6224 9.67998 14.4372 9.76951ZM7.58321 5.85735C8.18705 5.71187 8.84503 6.15416 8.93499 6.76825C9.06632 7.39603 8.55982 8.05631 7.92033 8.09181C7.32432 8.16267 6.73945 7.67795 6.69371 7.08116C6.62256 6.52379 7.03248 5.96295 7.58321 5.85735Z" fill="white" />
                                            </g>
                                            <defs>
                                                <clipPath id="clip0_136314_9719">
                                                    <rect width="18" height="18" fill="white" />
                                                </clipPath>
                                            </defs>
                                        </svg>