<svg width="210" height="50" viewBox="0 0 210 50" fill="none" xmlns="http://www.w3.org/2000/svg">
<path fill-rule="evenodd" clip-rule="evenodd" d="M29.435 25.8887C36.2419 15.5928 51.9318 4.38753 64.3703 0.93911C69.4452 -0.468045 69.4678 -0.416103 64.8032 1.93464C49.9134 9.43744 38.1013 21.4833 30.6873 36.7249L28.2283 41.7808L25.3067 41.8107L22.3849 41.841V28.8559V17.0974C25.3919 18.4194 27.6147 21.1956 28.1636 24.5354L28.2283 27.714L29.435 25.8887Z" fill="#389E0D"/>
<path fill-rule="evenodd" clip-rule="evenodd" d="M32.1644 35.2623L34.0075 32.2757C35.0211 30.6326 35.9021 29.2887 35.9644 29.2887C36.1171 29.2887 42.1439 41.3307 42.1439 41.636C42.1439 41.7669 40.4663 41.8186 38.4155 41.7498L34.6866 41.6247L33.4253 38.4437L32.1644 35.2623Z" fill="#434343"/>
<path d="M21.5481 36.0224C20.5583 36.3366 19.504 36.5063 18.41 36.5063C12.6908 36.5063 8.05439 31.8699 8.05439 26.1506C8.05439 20.4314 12.6908 15.795 18.41 15.795C23.9632 15.795 28.4954 20.166 28.754 25.6552C29.9345 23.9017 31.3695 22.1237 32.999 20.3641C30.6958 14.5624 25.032 10.4603 18.41 10.4603C9.74448 10.4603 2.71967 17.4851 2.71967 26.1506C2.71967 34.8161 9.74448 41.841 18.41 41.841C19.4847 41.841 20.5342 41.7331 21.5481 41.5272V36.0224Z" fill="#434343"/>
<path fill-rule="evenodd" clip-rule="evenodd" d="M14.2441 7.64976C12.784 7.82654 11.3837 8.19742 10.0698 8.73579L11.4047 11.3702C12.6335 10.7915 13.9467 10.3625 15.3208 10.1067L14.2441 7.64976ZM6.1642 11.0204C7.209 10.1941 8.35797 9.49382 9.58818 8.94236L10.9352 11.6008C9.79381 12.1843 8.73067 12.8991 7.76573 13.7254L6.1642 11.0204ZM5.75464 11.3552C4.75126 12.2031 3.85226 13.1707 3.07969 14.236L4.78157 17.0997C5.51776 15.989 6.38713 14.9743 7.3669 14.0783L5.75464 11.3552ZM0.863134 18.5115C1.32613 17.1531 1.96437 15.8758 2.75092 14.7065L4.46676 17.5938C3.75596 18.7551 3.18724 20.0128 2.78475 21.3427L0.863134 18.5115ZM0.661513 19.1458C0.231033 20.6038 0 22.1473 0 23.7448C0 23.9056 0.00234358 24.0661 0.00699845 24.2257L2.1149 26.9142C2.09973 26.6268 2.09205 26.3372 2.09205 26.046C2.09205 24.6498 2.26851 23.295 2.60036 22.0023L0.661513 19.1458ZM1.78588 31.1496C0.845454 29.3209 0.242469 27.2904 0.0591933 25.1399L2.19247 27.8607C2.36577 29.4167 2.75929 30.9063 3.34115 32.2975L1.78588 31.1496ZM2.41672 32.2653C3.21709 33.5586 4.1942 34.7307 5.31437 35.7485C4.73644 34.9759 4.22584 34.1502 3.79119 33.2797L2.41672 32.2653ZM15.8525 10.017C16.6525 9.89558 17.4716 9.83263 18.3054 9.83263C18.9532 9.83263 19.592 9.87062 20.2199 9.94447L19.3768 7.8398C18.3536 7.63746 17.2959 7.53137 16.2134 7.53137C15.7339 7.53137 15.2592 7.55219 14.7903 7.59296L15.8525 10.017ZM24.8368 11.202C23.573 10.645 22.2245 10.2448 20.8159 10.0258L19.9941 7.97453C21.5362 8.34286 22.9927 8.9315 24.3285 9.70533L24.8368 11.202ZM25.4935 11.5091C26.8487 12.1805 28.0967 13.0358 29.2044 14.0423C28.055 12.5059 26.6395 11.1801 25.0264 10.1334L25.4935 11.5091Z" fill="#434343"/>
<path d="M12.8798 13.8551L12.255 14.079L11.7165 13.6912C11.7018 13.6806 11.6839 13.6751 11.6658 13.6757C11.6202 13.677 11.5842 13.7152 11.5854 13.7609L11.6054 14.4242L11.0703 14.8167C11.0555 14.8275 11.0449 14.8428 11.0397 14.8601C11.0336 14.8812 11.0361 14.9039 11.0467 14.9232C11.0572 14.9424 11.075 14.9567 11.0961 14.9629L11.7331 15.149L11.9409 15.7793C11.9457 15.794 11.9546 15.807 11.9664 15.8169C11.9782 15.8269 11.9926 15.8332 12.0079 15.8354C12.0232 15.8376 12.0388 15.8354 12.0529 15.8291C12.0671 15.8229 12.0791 15.8128 12.0878 15.8L12.4616 15.2516L13.1253 15.2487C13.1434 15.2487 13.1612 15.2425 13.1755 15.2314C13.2116 15.2034 13.2183 15.1515 13.1903 15.1154L12.7843 14.5904L12.9865 13.9583C12.9919 13.9411 12.9917 13.9225 12.9855 13.9053C12.9704 13.862 12.9229 13.8398 12.8798 13.8551Z" fill="white"/>
<path d="M9.97139 15.6182L9.42708 15.998L8.80453 15.7638C8.7875 15.7574 8.76884 15.7568 8.75145 15.7621C8.70781 15.7753 8.68312 15.8216 8.69628 15.8654L8.89076 16.5015L8.47748 17.0208C8.46605 17.0351 8.45984 17.0526 8.45948 17.0708C8.45913 17.0928 8.46752 17.114 8.48281 17.1299C8.4981 17.1458 8.51904 17.1549 8.54103 17.1554L9.20543 17.1688L9.57258 17.7239C9.58109 17.7368 9.59306 17.7471 9.60712 17.7536C9.62118 17.7601 9.63676 17.7625 9.6521 17.7606C9.66743 17.7587 9.68193 17.7525 9.6939 17.7427C9.70589 17.733 9.7149 17.7201 9.7199 17.7055L9.93618 17.0776L10.5764 16.9013C10.594 16.8966 10.6095 16.8859 10.6204 16.8714C10.6479 16.835 10.6406 16.7831 10.6041 16.7555L10.0732 16.3541L10.1017 15.6902C10.1024 15.672 10.0973 15.6541 10.0867 15.6391C10.0608 15.6012 10.009 15.5922 9.97139 15.6182Z" fill="white"/>
<path d="M7.63921 18.0432L7.20766 18.5474L6.54697 18.4773C6.52889 18.4753 6.51069 18.4794 6.49519 18.4889C6.45628 18.5127 6.444 18.5637 6.46768 18.6028L6.81479 19.1693L6.54486 19.7756C6.53739 19.7923 6.53578 19.8108 6.53994 19.8285C6.54511 19.8499 6.55852 19.8683 6.57728 19.8798C6.59605 19.8913 6.61858 19.8949 6.63998 19.8898L7.28597 19.7359L7.77984 20.1806C7.7913 20.191 7.80546 20.1979 7.82067 20.2007C7.83588 20.2034 7.85157 20.2018 7.86592 20.1961C7.88027 20.1904 7.89274 20.1808 7.90191 20.1684C7.91105 20.1559 7.91653 20.1412 7.91772 20.1258L7.96998 19.464L8.54517 19.1325C8.56096 19.1235 8.57331 19.1093 8.58021 19.0925C8.59768 19.0503 8.57772 19.0019 8.53546 18.9844L7.92168 18.7295L7.78325 18.08C7.77942 18.0623 7.76996 18.0462 7.75601 18.0344C7.7214 18.0042 7.66908 18.0085 7.63921 18.0432Z" fill="white"/>
<path d="M5.94908 21.0029L5.65839 21.5994L5.00212 21.6981C4.98417 21.7008 4.96758 21.7092 4.95498 21.7224C4.92333 21.7552 4.92425 21.8075 4.95697 21.8395L5.43465 22.3002L5.3258 22.9548C5.32274 22.9728 5.32584 22.9912 5.33431 23.0073C5.34465 23.0266 5.36226 23.0412 5.38329 23.0475C5.40431 23.054 5.42701 23.0517 5.4464 23.0414L6.03226 22.7297L6.62126 23.0356C6.63496 23.0427 6.65038 23.0458 6.66578 23.0448C6.68117 23.0435 6.69594 23.0381 6.70839 23.0289C6.72084 23.0199 6.73046 23.0073 6.73619 22.9931C6.74193 22.9787 6.74352 22.963 6.74082 22.9477L6.62527 22.2944L7.09816 21.8287C7.11117 21.8159 7.11956 21.7992 7.12203 21.7812C7.12833 21.736 7.09686 21.6942 7.05163 21.6879L6.39433 21.5958L6.09755 21.0021C6.08942 20.986 6.07624 20.9728 6.05977 20.9649C6.01879 20.9444 5.96927 20.9617 5.94908 21.0029Z" fill="white"/>
<path d="M5.03558 24.3684L4.91474 25.0211L4.30911 25.2912C4.29252 25.2988 4.27884 25.3113 4.2702 25.3272C4.24846 25.3674 4.26332 25.4176 4.30334 25.4396L4.88612 25.7561L4.95587 26.4161C4.95775 26.4343 4.96564 26.4511 4.97804 26.4642C4.99319 26.4801 5.01401 26.4896 5.03595 26.49C5.0579 26.4906 5.07917 26.4824 5.0951 26.4674L5.5761 26.0105L6.22482 26.1481C6.23991 26.1513 6.2556 26.1502 6.27012 26.145C6.28461 26.1398 6.29738 26.1306 6.30692 26.1184C6.31648 26.1063 6.32242 26.0916 6.32413 26.0764C6.32583 26.0611 6.32319 26.0454 6.31652 26.0316L6.03102 25.4326L6.36221 24.8575C6.37135 24.8419 6.37491 24.8234 6.3725 24.8055C6.36652 24.7603 6.32507 24.7283 6.27984 24.7343L5.62238 24.8211L5.17836 24.3283C5.1662 24.3149 5.15001 24.3057 5.13202 24.3023C5.0871 24.2935 5.04405 24.3234 5.03558 24.3684Z" fill="white"/>
<path d="M49.6671 42.15C48.5023 42.15 47.4682 41.9559 46.5648 41.5676C45.6692 41.1713 44.96 40.577 44.437 39.7845C43.922 38.9843 43.6644 37.9818 43.6644 36.7772C43.6644 35.763 43.8427 34.9071 44.1994 34.2098C44.5558 33.5123 45.0473 32.9458 45.6732 32.51C46.2994 32.0741 47.0205 31.7452 47.8366 31.5234C48.6529 31.2935 49.5245 31.1391 50.4517 31.0598C51.4897 30.9647 52.3257 30.8657 52.9598 30.7626C53.5937 30.6517 54.0533 30.4973 54.3387 30.2992C54.6318 30.0931 54.7784 29.8038 54.7784 29.4314V29.372C54.7784 28.7617 54.5684 28.2902 54.1485 27.9573C53.7284 27.6245 53.1619 27.4582 52.4487 27.4582C51.6799 27.4582 51.0619 27.6245 50.5943 27.9573C50.1268 28.2902 49.8297 28.7498 49.7029 29.3362L44.342 29.146C44.5004 28.0366 44.9086 27.046 45.5663 26.1745C46.232 25.2948 47.1433 24.6054 48.3002 24.1061C49.4651 23.599 50.8638 23.3454 52.4962 23.3454C53.6611 23.3454 54.7349 23.4841 55.7176 23.7615C56.7002 24.0308 57.5558 24.427 58.2849 24.95C59.014 25.4651 59.5768 26.0992 59.9728 26.8519C60.377 27.6048 60.5791 28.4647 60.5791 29.4314V41.841H55.1113V39.2973H54.9686C54.6437 39.9153 54.2276 40.4383 53.7205 40.8663C53.2213 41.2941 52.631 41.6151 51.9494 41.8291C51.2757 42.0431 50.5151 42.15 49.6671 42.15ZM51.4621 38.3462C52.0881 38.3462 52.6506 38.2195 53.15 37.9659C53.6571 37.7124 54.0613 37.3636 54.3623 36.9199C54.6636 36.4682 54.814 35.9452 54.814 35.3508V33.6155C54.6477 33.7025 54.4456 33.7818 54.2079 33.8531C53.978 33.9245 53.7245 33.9918 53.4471 34.0552C53.1699 34.1186 52.8845 34.1741 52.5912 34.2218C52.2981 34.2693 52.0167 34.3128 51.7473 34.3525C51.2006 34.4395 50.733 34.5743 50.3448 34.7565C49.9644 34.9389 49.6711 35.1766 49.4651 35.4697C49.2669 35.755 49.168 36.0958 49.168 36.4921C49.168 37.0944 49.3818 37.554 49.8098 37.8709C50.2456 38.1879 50.7964 38.3462 51.4621 38.3462ZM67.0335 48.6877C66.3362 48.6877 65.6784 48.6322 65.0605 48.5213C64.4423 48.4182 63.9113 48.2797 63.4676 48.1052L64.7512 43.8856C65.322 44.0757 65.837 44.1866 66.2966 44.2184C66.7642 44.25 67.1642 44.1747 67.4971 43.9925C67.8379 43.8182 68.0994 43.5052 68.2816 43.0534L68.5075 42.5067L62.0174 23.5831H68.1033L71.4674 36.6109H71.6575L75.069 23.5831H81.1906L74.3081 43.5883C73.9753 44.5868 73.5038 45.4665 72.8937 46.2272C72.2914 46.9958 71.5109 47.5981 70.5521 48.0339C69.601 48.4699 68.4282 48.6877 67.0335 48.6877ZM89.8142 22.2755V17.4972H110.39V22.2755H103.009V41.841H97.2077V22.2755H89.8142ZM119.139 42.1858C117.221 42.1858 115.573 41.7935 114.194 41.009C112.823 40.2165 111.765 39.1151 111.02 37.7044C110.283 36.286 109.915 34.6416 109.915 32.7716C109.915 30.8933 110.283 29.2492 111.02 27.8385C111.765 26.4201 112.823 25.3186 114.194 24.5341C115.573 23.7416 117.221 23.3454 119.139 23.3454C121.056 23.3454 122.701 23.7416 124.072 24.5341C125.45 25.3186 126.508 26.4201 127.245 27.8385C127.99 29.2492 128.363 30.8933 128.363 32.7716C128.363 34.6416 127.99 36.286 127.245 37.7044C126.508 39.1151 125.45 40.2165 124.072 41.009C122.701 41.7935 121.056 42.1858 119.139 42.1858ZM119.174 37.7996C119.872 37.7996 120.462 37.5856 120.945 37.1577C121.429 36.7297 121.797 36.1354 122.051 35.3747C122.312 34.614 122.443 33.7343 122.443 32.7358C122.443 31.7216 122.312 30.8339 122.051 30.0732C121.797 29.3126 121.429 28.7182 120.945 28.2902C120.462 27.8624 119.872 27.6483 119.174 27.6483C118.453 27.6483 117.843 27.8624 117.344 28.2902C116.853 28.7182 116.476 29.3126 116.215 30.0732C115.961 30.8339 115.834 31.7216 115.834 32.7358C115.834 33.7343 115.961 34.614 116.215 35.3747C116.476 36.1354 116.853 36.7297 117.344 37.1577C117.843 37.5856 118.453 37.7996 119.174 37.7996ZM136.582 37.0506L136.606 30.1207H137.414L142.549 23.5831H149.135L141.503 32.9498H139.97L136.582 37.0506ZM131.34 41.841V17.4972H137.153V41.841H131.34ZM142.68 41.841L137.902 34.2573L141.729 30.1326L149.396 41.841H142.68ZM158.998 42.1858C157.088 42.1858 155.44 41.8092 154.053 41.0565C152.674 40.2958 151.612 39.214 150.867 37.8115C150.13 36.4008 149.762 34.7249 149.762 32.7835C149.762 30.8973 150.134 29.2492 150.879 27.8385C151.624 26.4201 152.674 25.3186 154.029 24.5341C155.384 23.7416 156.981 23.3454 158.819 23.3454C160.119 23.3454 161.308 23.5475 162.385 23.9517C163.463 24.3557 164.394 24.954 165.179 25.7465C165.963 26.5389 166.573 27.5176 167.009 28.6824C167.445 29.8395 167.663 31.1667 167.663 32.6644V34.1147H151.794V30.7389H162.255C162.247 30.1207 162.1 29.5701 161.815 29.0866C161.529 28.6031 161.137 28.2268 160.638 27.9573C160.147 27.6801 159.58 27.5414 158.938 27.5414C158.288 27.5414 157.706 27.6879 157.191 27.9812C156.676 28.2665 156.268 28.6588 155.967 29.158C155.665 29.6492 155.507 30.208 155.491 30.8339V34.2693C155.491 35.014 155.638 35.6678 155.931 36.2306C156.224 36.7852 156.64 37.2172 157.179 37.5262C157.718 37.8352 158.36 37.9898 159.105 37.9898C159.62 37.9898 160.087 37.9184 160.507 37.7757C160.927 37.6331 161.288 37.4232 161.589 37.1458C161.89 36.8684 162.116 36.5276 162.267 36.1234L167.604 36.278C167.382 37.4747 166.894 38.5167 166.141 39.4042C165.397 40.2839 164.418 40.9693 163.205 41.4607C161.993 41.9439 160.59 42.1858 158.998 42.1858ZM176.444 31.4283V41.841H170.632V23.5831H176.159V26.9352H176.361C176.765 25.8178 177.455 24.9421 178.429 24.3082C179.404 23.6663 180.565 23.3454 181.912 23.3454C183.196 23.3454 184.309 23.6345 185.252 24.2132C186.203 24.7837 186.94 25.5841 187.463 26.6142C187.994 27.6364 188.256 28.8331 188.248 30.204V41.841H182.435V31.3452C182.443 30.3308 182.186 29.5383 181.663 28.9678C181.147 28.3973 180.43 28.1119 179.511 28.1119C178.901 28.1119 178.362 28.2467 177.894 28.5161C177.435 28.7776 177.078 29.154 176.825 29.6454C176.579 30.1366 176.452 30.731 176.444 31.4283ZM207.786 29.158L202.449 29.3006C202.394 28.9203 202.243 28.5835 201.997 28.2902C201.752 27.9891 201.431 27.7552 201.035 27.5889C200.646 27.4147 200.195 27.3274 199.68 27.3274C199.006 27.3274 198.432 27.4621 197.956 27.7316C197.488 28.0011 197.259 28.3655 197.267 28.8251C197.259 29.1818 197.401 29.4908 197.695 29.7523C197.996 30.0138 198.531 30.2239 199.299 30.3822L202.818 31.0479C204.64 31.3967 205.995 31.9751 206.883 32.7835C207.778 33.5916 208.23 34.6615 208.238 35.9927C208.23 37.2448 207.858 38.3345 207.121 39.2615C206.392 40.1887 205.393 40.9098 204.125 41.4249C202.857 41.9322 201.407 42.1858 199.775 42.1858C197.168 42.1858 195.111 41.6508 193.606 40.581C192.108 39.5034 191.252 38.0611 191.038 36.2542L196.779 36.1117C196.906 36.7772 197.235 37.2845 197.766 37.6331C198.297 37.9818 198.974 38.1561 199.799 38.1561C200.544 38.1561 201.15 38.0174 201.617 37.7402C202.085 37.4628 202.322 37.0944 202.33 36.6347C202.322 36.2226 202.14 35.8937 201.784 35.6481C201.427 35.3946 200.868 35.1965 200.108 35.0538L196.922 34.4475C195.091 34.1147 193.728 33.5006 192.833 32.605C191.937 31.7017 191.494 30.5527 191.502 29.158C191.494 27.9377 191.819 26.8956 192.476 26.0318C193.134 25.16 194.069 24.4944 195.282 24.0347C196.494 23.5751 197.924 23.3454 199.573 23.3454C202.045 23.3454 203.995 23.8644 205.421 24.9025C206.847 25.9326 207.636 27.3513 207.786 29.158Z" fill="#0050B3"/>
</svg>
