                                        <svg width="18" height="18" viewBox="0 0 18 18" fill="none" xmlns="http://www.w3.org/2000/svg">
                                            <path d="M15.6502 10.7498C15.3336 10.9372 14.9533 10.9999 14.6998 10.8124C14.3195 10.625 14.1296 10.1249 14.1296 9.5V7.49998C14.1296 6.56248 13.7496 5.87504 13.1158 5.6875C12.0389 5.37515 11.215 6.68751 10.8983 7.18763L8.99747 10.25V6.49997C8.99747 5.62498 8.68082 5.12486 8.1738 5.00006C7.79377 4.87503 7.28675 4.93755 6.77997 5.6875L2.53486 12.4375C1.9647 11.3752 1.64781 10.1877 1.64781 8.9376C1.64781 4.87503 4.94249 1.56265 8.9977 1.56265C13.0529 1.56265 16.3474 4.93755 16.3474 8.99988C16.4105 9.81258 16.1572 10.4375 15.6502 10.7498ZM17.9947 8.99988C17.9947 4.00005 13.9397 0 8.99747 0C4.05521 0 0 4.06257 0 8.99988C0 13.9374 4.05521 18 8.99747 18C11.2784 18 13.4327 17.1248 15.1434 15.5626C15.4601 15.2503 15.5237 14.7501 15.2068 14.3753C14.8899 14.0627 14.3831 14.0002 14.0663 14.3128C12.7358 15.5628 10.8983 16.3128 9.06085 16.3128C6.90672 16.3128 4.94226 15.3753 3.54843 13.8754L7.41327 7.7505V10.563C7.41327 11.9381 7.92006 12.3755 8.3637 12.5003C8.80734 12.6255 9.50426 12.5628 10.2012 11.3755L12.2922 8.00033C12.3555 7.8753 12.4189 7.81302 12.4823 7.68799V9.37543C12.4823 10.6255 12.9891 11.6253 13.8761 12.1254C14.6998 12.5628 15.7136 12.5628 16.5373 12.0004C17.5511 11.5625 18.0581 10.375 17.9947 8.99988Z" fill="white" />
                                        </svg>